<svg width="300" height="300" viewBox="0 0 300 300" fill="none" xmlns="http://www.w3.org/2000/svg">
<g clip-path="url(#clip0_37421_2)">
<circle cx="150" cy="150" r="150" fill="#F24D88"/>
<path d="M239.998 181.725C239.153 181.745 238.308 181.715 237.466 181.634C235.873 181.544 234.279 181.442 232.685 181.442C231.657 181.442 231.657 181.442 231.555 180.413L230.052 163.347L228.549 149.185L227.52 140.459L226.582 132.864L224.898 121.053C224.333 116.837 223.677 112.712 222.83 108.485C222.739 107.829 222.739 107.739 223.485 107.637C226.42 107.072 229.403 106.788 232.392 106.79H233.42C233.647 106.825 233.855 106.938 234.01 107.109C234.164 107.279 234.255 107.498 234.268 107.728L234.641 114.193L237.263 149.174L238.574 165.212L239.422 174.401L239.987 181.713L239.998 181.725ZM125.019 106.79H126.703C127.55 106.79 127.731 107.072 127.731 107.92L128.477 119.222L130.184 142.856L131.212 155.141L131.958 164.613L133.461 180.933C133.461 181.679 133.371 181.781 132.614 181.781L125.832 181.498C125.369 181.589 125.086 181.306 125.086 180.843L124.804 177.565C124.521 174.751 124.239 171.914 124.058 169.032L122.577 154.158L120.984 140.742L119.853 131.271L118.633 122.647C118.068 118.804 117.412 114.859 116.756 111.017L116.282 108.394C116.191 107.92 116.282 107.739 116.756 107.649C119.467 107.065 122.234 106.78 125.007 106.801L125.019 106.79ZM219.36 144.585C221.699 144.585 221.982 144.675 222.366 146.924C222.833 149.735 223.21 152.549 223.497 155.367L224.525 164.409L226.492 183.725C226.582 184.2 226.492 184.381 226.017 184.381L218.704 185.228C217.958 185.319 217.766 185.228 217.676 184.482L213.46 162.917L210.838 148.563L210.465 146.597C210.439 146.516 210.432 146.431 210.443 146.348C210.454 146.264 210.483 146.184 210.528 146.113C210.573 146.042 210.633 145.981 210.705 145.936C210.776 145.891 210.856 145.862 210.939 145.851C213.716 145.199 216.539 144.761 219.382 144.54L219.36 144.585ZM112.733 144.585C115.265 144.494 115.547 144.777 115.83 147.117C116.485 150.959 116.96 154.712 117.333 158.555L118.554 169.857L119.3 177.452L119.955 183.544C119.955 184.392 119.865 184.573 119.107 184.674L112.168 185.33C111.422 185.42 111.23 185.33 111.139 184.584L105.42 155.141L103.917 146.8C103.883 146.707 103.872 146.607 103.884 146.509C103.896 146.41 103.93 146.316 103.985 146.233C104.04 146.151 104.114 146.083 104.2 146.034C104.287 145.985 104.383 145.957 104.482 145.952C107.196 145.309 109.954 144.871 112.733 144.641V144.585ZM148.561 173.655V185.658C148.652 186.223 148.369 186.505 147.816 186.404H145.555C143.961 186.404 142.368 186.494 140.774 186.596C139.926 186.686 139.836 186.686 139.746 185.658L138.242 168.772L137.496 160.431L136.366 147.682C136.276 146.653 136.457 146.461 137.304 146.371C139.933 146.117 142.578 146.053 145.216 146.178L147.183 146.461C147.929 146.744 148.03 146.834 148.03 147.591L148.313 152.655L148.403 158.306C148.494 163.46 148.595 168.478 148.595 173.689L148.561 173.655ZM254.996 174.22V185.805C254.996 186.268 254.804 186.551 254.341 186.46H250.95C249.639 186.46 248.328 186.551 247.107 186.652C246.361 186.743 246.26 186.652 246.169 185.805L244.202 163.855L243.174 152.983L242.801 147.456C242.711 146.71 242.891 146.518 243.649 146.518C246.761 146.112 249.91 146.082 253.03 146.427C254.25 146.517 254.431 146.902 254.533 148.111L254.815 160.544L255.008 174.231L254.996 174.22ZM216.681 124.613C217.498 124.62 218.314 124.684 219.122 124.806C219.316 124.819 219.498 124.902 219.635 125.039C219.772 125.176 219.855 125.358 219.868 125.552L221.089 138.583C221.372 139.713 221.179 139.894 220.061 139.894L216.873 140.086C216.218 140.177 215.935 140.279 215.935 139.239L214.624 128.637L214.251 125.631C214.161 125.066 214.342 124.783 214.907 124.693L216.692 124.602L216.681 124.613ZM110.438 124.613C111.162 124.627 111.883 124.691 112.597 124.806C112.774 124.838 112.935 124.93 113.054 125.065C113.173 125.2 113.243 125.372 113.253 125.552L113.626 128.829L114.564 139.001C114.654 139.747 114.654 139.849 113.908 139.849L110.246 140.041C109.5 140.132 109.399 140.041 109.308 139.295L108.461 131.79L107.715 125.506C107.624 125.032 107.805 124.76 108.28 124.76C108.994 124.646 109.715 124.582 110.438 124.568V124.613ZM147.861 133.994V140.459C147.951 141.488 147.77 141.488 146.923 141.488C145.702 141.488 144.583 141.398 143.453 141.296C142.707 141.205 142.605 141.205 142.707 140.448L142.424 132.48C142.424 130.694 142.424 128.92 142.334 127.134C142.243 126.286 142.334 126.196 143.182 126.196C144.501 126.196 145.82 126.291 147.126 126.478C147.872 126.478 147.872 126.67 147.872 127.416V133.983L147.861 133.994ZM254.397 134.085V140.595C254.397 141.443 254.307 141.533 253.459 141.533L249.899 141.341C249.334 141.251 249.051 140.968 249.153 140.493L248.814 127.032C248.814 126.286 248.904 126.184 249.662 126.184C250.882 126.184 252.001 126.275 253.131 126.377C254.533 126.467 254.352 126.75 254.352 127.778V134.062L254.397 134.085ZM107.534 139.148C107.624 140.279 107.534 140.459 106.403 140.55L104.143 141.115C103.397 141.398 103.295 141.205 103.205 140.55L100.865 127.326C100.583 126.478 100.775 126.298 101.611 126.196L104.889 125.631C105.635 125.54 105.827 125.54 105.827 126.286C106.11 127.88 106.392 129.473 106.573 131.067L107.511 138.572V139.137L107.534 139.148ZM207.311 126.298C208.713 126.015 210.216 125.834 211.719 125.642C212.183 125.552 212.375 125.834 212.465 126.298L213.211 131.451C213.599 133.968 213.848 136.503 213.957 139.047V139.793C213.983 139.873 213.99 139.958 213.979 140.042C213.969 140.125 213.939 140.205 213.894 140.276C213.849 140.348 213.789 140.408 213.717 140.453C213.646 140.498 213.566 140.528 213.483 140.539L210.476 141.194C210.013 141.284 209.821 141.104 209.73 140.629L207.289 126.659V126.286L207.311 126.298ZM140.729 136.47C140.729 137.973 140.638 139.374 140.537 140.685C140.537 141.16 140.345 141.341 139.881 141.431L136.977 141.714C136.513 141.804 136.321 141.522 136.321 141.058C136.129 139.657 136.038 138.335 135.948 136.933C135.756 134.401 135.575 131.779 135.473 129.146L135.281 127.269C135.191 126.897 135.372 126.704 135.745 126.704L139.587 126.422C140.243 126.422 140.435 126.512 140.435 127.269L140.718 136.458L140.729 136.47ZM247.028 134.944C247.122 136.755 247.122 138.569 247.028 140.38C247.118 141.228 246.938 141.409 246.09 141.409L243.468 141.691C243.004 141.782 242.722 141.499 242.722 141.036C242.631 138.696 242.439 136.255 242.258 133.904L241.885 127.337C241.795 126.874 241.976 126.682 242.349 126.682L246.101 126.399C246.757 126.399 246.847 126.49 246.847 127.247C247.052 129.803 247.116 132.369 247.039 134.933L247.028 134.944ZM103.827 166.918C104.527 167.712 105.001 168.679 105.2 169.719C105.399 170.759 105.315 171.833 104.957 172.83C104.416 174.854 103.347 176.699 101.86 178.176C99.4397 180.686 96.6213 182.778 93.5187 184.369C88.2643 187.176 82.6 189.137 76.7346 190.179C72.5564 191.016 68.3278 191.578 64.076 191.863C62.7649 191.953 61.4538 191.953 60.1314 191.953H57.3171C56.5711 191.953 56.379 191.761 56.2886 191.015L55.633 181.973L53.8472 164.059L51.8806 146.992L50.7504 137.95L49.5297 129.225C48.8742 124.444 48.0265 119.663 47.1901 114.871C46.5346 111.028 45.8791 107.185 45.0314 103.331C44.941 102.856 45.0314 102.483 45.4948 102.393L58.5265 96.9564C59.3088 96.5903 60.1269 96.3062 60.9678 96.1088C61.5329 96.0183 61.8155 96.1992 61.7138 96.7643C61.7138 98.2675 61.7137 99.7707 61.6233 101.364L61.5329 102.585C61.4425 108.021 61.4425 113.458 61.5329 118.996C61.6233 123.777 61.9059 128.66 62.1884 133.441C62.6518 140.945 63.4091 148.45 64.155 155.853C64.155 156.599 64.2455 156.599 65.0932 156.509C66.6424 156.245 68.2122 156.12 69.7837 156.136C74.7365 156.12 79.6721 156.719 84.4768 157.922C88.6981 158.937 92.8209 160.325 96.7964 162.07C98.727 162.998 100.55 164.135 102.233 165.46C102.83 165.887 103.366 166.393 103.827 166.964V166.918ZM209.515 166.071C210.447 166.792 211.142 167.777 211.511 168.896C211.88 170.016 211.905 171.221 211.584 172.355C211.126 174.378 210.157 176.25 208.769 177.791C206.546 180.257 203.911 182.318 200.982 183.883C195.373 186.987 189.289 189.141 182.977 190.258C179.536 190.942 176.062 191.444 172.568 191.761C170.48 191.969 168.38 192.033 166.284 191.953H163.752C163.187 192.044 162.904 191.761 162.904 191.207C162.712 188.585 162.531 185.952 162.249 183.296L160.745 167.257L159.152 153.288L157.185 137.532C156.903 134.808 156.53 131.994 156.055 129.281L154.371 118.781C153.625 113.808 152.687 108.847 151.647 103.874L151.557 103.218C151.503 103.129 151.473 103.027 151.468 102.923C151.464 102.819 151.486 102.716 151.532 102.622C151.578 102.529 151.647 102.449 151.732 102.389C151.818 102.329 151.916 102.291 152.02 102.28C156.62 100.404 161.062 98.3353 165.707 96.5609C166.928 96.0975 168.431 95.5323 168.329 96.6513C167.956 100.121 168.047 103.591 167.956 106.97C167.845 109.75 167.875 112.534 168.047 115.312V117.47C168.047 120.861 168.137 124.252 168.42 127.507C168.612 131.915 168.895 136.413 169.267 140.821L170.115 150.293C170.211 152.053 170.399 153.807 170.68 155.548C170.68 156.577 170.872 156.486 171.709 156.396C173.383 156.132 175.077 156.007 176.772 156.023C182.632 156.146 188.45 157.039 194.076 158.679C197.914 159.7 201.626 161.148 205.141 162.996C206.725 163.855 208.204 164.895 209.549 166.093L209.515 166.071ZM73.8864 182.572C76.3854 180.986 78.7963 179.266 81.1087 177.418C83.3113 175.735 85.4098 173.919 87.3928 171.982C82.2463 169.715 76.9876 167.712 71.6373 165.98L73.8978 182.584L73.8864 182.572ZM193.692 172.4C193.975 172.117 193.884 171.937 193.602 171.744L191.341 170.806C187.408 169.122 183.429 167.619 179.428 166.285L178.863 166.093C178.671 166.003 178.49 166.093 178.208 166.184L180.468 182.403C180.674 182.415 180.877 182.346 181.033 182.211C184.695 179.588 188.346 176.865 192.008 173.96L193.692 172.366V172.4Z" fill="white"/>
</g>
<defs>
<clipPath id="clip0_37421_2">
<rect width="300" height="300" fill="white"/>
</clipPath>
</defs>
</svg>
