<svg width="256" height="256" viewBox="0 0 256 256" fill="none" xmlns="http://www.w3.org/2000/svg">
<g clip-path="url(#clip0_37421_16)">
<circle cx="128" cy="128" r="128" fill="#FF2741"/>
<path d="M192.77 109.77C195.77 110.2 199.77 108.55 202.06 110.97C202.44 114.62 202.16 118.29 202.2 121.97C199.09 121.97 195.97 121.97 192.86 121.97C192.8 117.903 192.77 113.837 192.77 109.77Z" fill="#FF2741"/>
<path d="M50.17 91.44C54.71 91.44 59.26 91.44 63.8 91.44C63.93 111.63 63.88 131.83 63.89 152.02C63.96 156.15 62.89 160.74 59.38 163.32C55.52 166.32 50.38 165.32 45.84 165.49C44.04 161.62 42.3 157.72 40.69 153.76C43.09 153.76 45.49 153.82 47.88 153.68C48.2059 153.694 48.5305 153.632 48.8283 153.499C49.126 153.366 49.3886 153.165 49.5953 152.913C49.802 152.66 49.9471 152.363 50.0191 152.045C50.0911 151.727 50.088 151.397 50.01 151.08C50.11 131.19 50 111.31 50.17 91.44Z" fill="white"/>
<path d="M106.25 90.54C110.93 90.47 115.61 90.54 120.25 90.54C117.81 96.77 114.35 102.64 112.45 109.04C116.37 110.7 121.2 109.31 125.45 109.81C121.96 117.97 118.06 125.96 114.77 134.22C117.77 134.83 120.93 134.61 124.02 134.61C122.32 138.5 120.58 142.36 118.85 146.23C113.55 146.14 108.24 146.45 102.95 146.09C100.03 146.09 97.36 143.09 98.43 140.17C100.36 134.25 103.37 128.76 105.66 122.98C102.36 122.76 98.41 123.7 95.72 121.26C93.62 119.17 94.84 116.11 95.83 113.8C99.37 106.067 102.843 98.3134 106.25 90.54Z" fill="white"/>
<path d="M179 90.59C183.61 90.59 188.23 90.59 192.84 90.59V95.79C199.48 95.53 207.21 95.55 212.01 100.93C217.16 106.62 215.49 114.83 215.79 121.81C220.79 121.9 226.38 123.08 229.47 127.42C233.1 132.54 231.67 139.15 231.96 145C231.77 150.57 233.15 157.3 228.55 161.56C223.71 166.79 215.95 165.19 209.6 165.56C207.67 161.65 206.02 157.62 204.32 153.61C208.18 153.5 212.04 153.76 215.89 153.48C216.488 153.444 217.047 153.172 217.445 152.724C217.842 152.276 218.046 151.688 218.01 151.09C218.195 147.399 218.195 143.701 218.01 140.01C218.08 137.4 215.37 135.74 213.01 135.94C206.27 135.84 199.54 135.94 192.8 135.94C192.8 145.8 192.8 155.657 192.8 165.51C188.18 165.51 183.57 165.51 178.95 165.51C178.95 155.65 178.95 145.78 178.95 135.92C174.34 135.92 169.72 135.92 165.11 135.92C165.11 131.29 165.11 126.66 165.11 122.02C169.71 122.02 174.32 122.02 178.92 121.95C179.007 117.95 179.007 113.923 178.92 109.87C175.86 109.82 172.8 109.78 169.73 109.81C169.73 105.143 169.73 100.5 169.73 95.88C172.79 95.88 175.85 95.88 178.91 95.88L179 90.59ZM192.77 109.77C192.77 113.837 192.8 117.903 192.86 121.97C195.97 121.97 199.09 121.97 202.2 121.97C202.2 118.31 202.44 114.64 202.06 110.97C199.77 108.55 195.77 110.2 192.77 109.77Z" fill="white"/>
<path d="M129.58 95.81C140.16 95.81 150.73 95.81 161.3 95.81C161.3 100.45 161.3 105.1 161.3 109.74C158.39 109.74 155.49 109.74 152.58 109.74C152.58 123.667 152.58 137.59 152.58 151.51C157.03 151.56 161.49 151.51 165.94 151.56C165.94 156.187 165.94 160.82 165.94 165.46C150.46 165.46 134.94 165.46 119.5 165.46C121.59 160.82 123.69 156.18 125.84 151.56C129.99 151.56 134.15 151.56 138.3 151.51C138.3 137.6 138.3 123.68 138.3 109.77C135.4 109.77 132.51 109.77 129.61 109.77C129.57 105.103 129.56 100.45 129.58 95.81Z" fill="white"/>
<path d="M220.93 97.09C224.43 94.19 230.24 96.09 231.55 100.36C233.22 104.28 230.09 109.13 225.93 109.51C223.34 109.74 220.74 109.61 218.15 109.6C218.32 105.41 217.05 100 220.93 97.09Z" fill="white"/>
<path d="M27 109.72C31.57 109.72 36.13 109.79 40.69 109.61C40.41 117.42 39.54 125.21 39.05 133.01C38.47 142.18 36.39 151.62 30.79 159.11C28.29 153.83 25.95 148.48 23.61 143.11C24.3324 141.162 24.7768 139.122 24.93 137.05C25.56 128 26.27 118.84 27 109.72Z" fill="white"/>
<path d="M73.1 109.72C77.7067 109.72 82.3167 109.72 86.93 109.72C87.63 118.81 88.35 127.9 89.01 136.99C89.1486 139.093 89.5932 141.165 90.33 143.14C87.99 148.49 85.63 153.83 83.16 159.14C77.98 152.23 75.79 143.59 75.06 135.14C74.33 126.69 73.77 118.18 73.1 109.72Z" fill="white"/>
<path d="M90.26 164.41C92.3733 159.743 94.5067 155.093 96.66 150.46C103.79 152.29 111.19 151.25 118.46 151.53C116.38 156.19 114.25 160.83 112.11 165.46C104.84 165.07 97.34 166.5 90.26 164.41Z" fill="white"/>
</g>
<defs>
<clipPath id="clip0_37421_16">
<rect width="256" height="256" fill="white"/>
</clipPath>
</defs>
</svg>

